#!OML:ASF H:\Dans Jumps\Project 1\Capture day 1\Session 1\subject.ASF
:FULLY-SPECIFIED
:DEGREES
517
root 0.451946 17.6821 5.42494 7.02887 2.81616 -1.60012
lowerback 0.337246 -0.277505 -0.401647
upperback 2.04775 -0.398909 2.04682
thorax 1.92754 -0.225397 2.32025
lowerneck -15.5824 -0.218267 -2.22796
upperneck 6.33346 0.0895979 0.679036
head 4.40894 0.029347 0.575847
rclavicle 3.47873e-015 2.78299e-015
rhumerus -19.0051 -20.8821 -82.2299
rradius 19.617
rwrist 38.647
rhand -21.4197 -26.7142
rfingers 7.12502
rthumb 4.96912 -56.6359
lclavicle 3.47873e-015 2.78299e-015
lhumerus -18.576 9.08048 86.8026
lradius 11.2968
lwrist -11.6999
lhand -25.9087 -5.21554
lfingers 7.12502
lthumb 0.633892 24.7633
rfemur -17.402 -1.31285 20.9094
rtibia 23.6788
rfoot -11.8204 -4.97627
rtoes 10.7446
lfemur -18.0451 3.92385 -18.0732
ltibia 21.9087
lfoot -9.55167 2.39501
ltoes -2.47185
518
root 0.451589 17.6833 5.42917 7.02412 2.82457 -1.5858
lowerback 0.291117 -0.279099 -0.401418
upperback 2.03633 -0.401222 2.04822
thorax 1.94184 -0.226584 2.32134
lowerneck -15.5998 -0.218561 -2.2348
upperneck 6.29789 0.0924454 0.664808
head 4.40061 0.0298857 0.572709
rclavicle -1.04362e-015 -3.57812e-015
rhumerus -18.8477 -20.8693 -82.3714
rradius 19.5684
rwrist 38.7717
rhand -21.4482 -26.6687
rfingers 7.12502
rthumb 4.9416 -56.591
lclavicle -1.04362e-015 -3.57812e-015
lhumerus -18.2673 8.91528 86.9612
lradius 11.376
lwrist -11.4727
lhand -25.9606 -5.24676
lfingers 7.12502
lthumb 0.583757 24.7322
rfemur -17.3567 -1.32751 20.8954
rtibia 23.6386
rfoot -11.8231 -4.97437
rtoes 10.75
lfemur -17.9876 3.91252 -18.0845
ltibia 21.8424
lfoot -9.54377 2.39473
ltoes -2.49708
519
root 0.451271 17.6846 5.43347 7.02111 2.83037 -1.5639
lowerback 0.240169 -0.280583 -0.408586
upperback 2.02435 -0.403299 2.04634
thorax 1.95828 -0.227759 2.3232
lowerneck -15.6233 -0.218575 -2.24731
upperneck 6.27755 0.0957395 0.662641
head 4.39795 0.0311908 0.574295
rclavicle 1.26725e-014 -1.23246e-014
rhumerus -18.6971 -20.8456 -82.5171
rradius 19.5218
rwrist 38.9048
rhand -21.4509 -26.6335
rfingers 7.12502
rthumb 4.93901 -56.5559
lclavicle 1.26725e-014 -1.23246e-014
lhumerus -17.9532 8.75708 87.1202
lradius 11.4486
lwrist -11.2955
lhand -26.01 -5.29592
lfingers 7.12502
lthumb 0.53608 24.6831
rfemur -17.3153 -1.34149 20.873
rtibia 23.6019
rfoot -11.8273 -4.97154
rtoes 10.7654
lfemur -17.9289 3.90309 -18.1047
ltibia 21.7729
lfoot -9.53425 2.39352
ltoes -2.51267
520
root 0.450852 17.6858 5.43766 7.02005 2.83339 -1.53779
lowerback 0.189399 -0.282018 -0.421689
upperback 2.01012 -0.405195 2.04332
thorax 1.97235 -0.228906 2.32723
lowerneck -15.6494 -0.217076 -2.2614
upperneck 6.26517 0.10098 0.665061
head 4.39815 0.0336635 0.577734
rclavicle -5.31749e-015 3.97569e-015
rhumerus -18.5525 -20.8094 -82.6664
rradius 19.4742
rwrist 39.0307
rhand -21.4265 -26.6161
rfingers 7.12502
rthumb 4.9625 -56.538
lclavicle -5.31749e-015 3.97569e-015
lhumerus -17.6382 8.60531 87.2806
lradius 11.5195
lwrist -11.1552
lhand -26.044 -5.35322
lfingers 7.12502
lthumb 0.503276 24.6259
rfemur -17.278 -1.34785 20.8461
rtibia 23.5673
rfoot -11.8306 -4.97369
rtoes 10.7829
lfemur -17.8704 3.89632 -18.1292
ltibia 21.6986
lfoot -9.52088 2.39045
ltoes -2.51455
521
root 0.450477 17.6871 5.44192 7.01912 2.83493 -1.51144
lowerback 0.13612 -0.283521 -0.434972
upperback 1.99557 -0.407173 2.04008
thorax 1.9875 -0.2301 2.3311
lowerneck -15.6708 -0.214361 -2.2774
upperneck 6.25218 0.107719 0.671438
head 4.3974 0.0370772 0.58283
rclavicle 4.42296e-015 3.18055e-014
rhumerus -18.4161 -20.7534 -82.8195
rradius 19.4361
rwrist 39.1439
rhand -21.3925 -26.6054
rfingers 7.12502
rthumb 4.99533 -56.5265
lclavicle 4.42296e-015 3.18055e-014
lhumerus -17.3233 8.4418 87.4474
lradius 11.5853
lwrist -11.0385
lhand -26.0895 -5.43645
lfingers 7.12502
lthumb 0.459294 24.5428
rfemur -17.2402 -1.35499 20.819
rtibia 23.5313
rfoot -11.834 -4.97396
rtoes 10.804
lfemur -17.8095 3.8956 -18.1545
ltibia 21.6194
lfoot -9.50596 2.38062
ltoes -2.49817
522
root 0.450279 17.6886 5.44635 7.01577 2.83735 -1.48339
lowerback 0.081772 -0.285204 -0.447224
upperback 1.98148 -0.409374 2.03518
thorax 2.00371 -0.231383 2.3327
lowerneck -15.6762 -0.214184 -2.2909
upperneck 6.2296 0.110242 0.676951
head 4.39118 0.038468 0.586884
rclavicle 9.93923e-017 1.78906e-014
rhumerus -18.2833 -20.7069 -82.9709
rradius 19.3938
rwrist 39.2547
rhand -21.3373 -26.6048
rfingers 7.12502
rthumb 5.04867 -56.5246
lclavicle 9.93923e-017 1.78906e-014
lhumerus -17.0106 8.21915 87.6305
lradius 11.6574
lwrist -10.889
lhand -26.1328 -5.48641
lfingers 7.12502
lthumb 0.417515 24.4929
rfemur -17.1952 -1.36817 20.7895
rtibia 23.4893
rfoot -11.8371 -4.96974
rtoes 10.8193
lfemur -17.743 3.90206 -18.1831
ltibia 21.5353
lfoot -9.49114 2.36191
ltoes -2.47107
